<svg xmlns="http://www.w3.org/2000/svg" viewBox="0 0 512 512">
  <rect width="512" height="512" rx="96" fill="#1a1a2e"/>
  <!-- 3x3 grid lines -->
  <line x1="192" y1="80" x2="192" y2="432" stroke="#2563eb" stroke-width="4" opacity="0.3"/>
  <line x1="320" y1="80" x2="320" y2="432" stroke="#2563eb" stroke-width="4" opacity="0.3"/>
  <line x1="64" y1="192" x2="448" y2="192" stroke="#2563eb" stroke-width="4" opacity="0.3"/>
  <line x1="64" y1="320" x2="448" y2="320" stroke="#2563eb" stroke-width="4" opacity="0.3"/>
  <!-- Knight chess piece (simplified) -->
  <g transform="translate(256, 256) scale(1.8)" fill="#fff">
    <path d="M-20 60 L20 60 L25 40 L-25 40 Z" fill="#fff"/>
    <path d="M-30 40 L30 40 L20 -10 Q15 -30 5 -45 Q0 -55 -10 -60 Q-15 -55 -20 -45 L-25 -50 L-30 -40 L-20 -35 Q-25 -20 -25 -10 Z" fill="#fff"/>
    <circle cx="-5" cy="-35" r="4" fill="#1a1a2e"/>
  </g>
</svg>
